<?xml version="1.0" standalone="no"?>
<!DOCTYPE svg PUBLIC "-//W3C//DTD SVG 20010904//EN"
 "http://www.w3.org/TR/2001/REC-SVG-20010904/DTD/svg10.dtd">
<svg version="1.0" xmlns="http://www.w3.org/2000/svg"
 width="300.000000pt" height="300.000000pt" viewBox="0 0 300.000000 300.000000"
 preserveAspectRatio="xMidYMid meet">
<metadata>
Created by potrace 1.10, written by Peter Selinger 2001-2011
</metadata>
<g transform="translate(0.000000,300.000000) scale(0.100000,-0.100000)"
fill="#000000" stroke="none">
<path d="M1318 2521 c-101 -22 -171 -47 -265 -95 -189 -95 -369 -285 -449
-473 -27 -63 -27 -66 -9 -79 31 -23 39 -17 70 53 84 193 265 376 463 465 119
54 241 80 382 81 253 2 475 -85 660 -260 58 -54 72 -63 94 -57 15 3 28 10 31
14 9 15 -125 139 -211 196 -97 64 -207 114 -319 144 -117 31 -330 37 -447 11z"/>
<path d="M1320 2411 c-127 -28 -208 -65 -339 -155 l-75 -51 75 -6 c41 -4 142
-7 224 -7 170 0 161 12 -18 23 -149 10 -156 11 -164 19 -17 16 91 80 205 121
98 35 200 48 342 43 107 -4 138 -9 218 -37 51 -18 110 -42 130 -53 60 -34 141
-88 147 -98 8 -13 -13 -17 -185 -39 -150 -20 -299 -47 -309 -56 -8 -8 28 -5
254 21 121 14 244 28 273 31 28 3 52 9 52 12 0 14 -162 125 -235 161 -128 62
-209 81 -370 86 -112 3 -157 0 -225 -15z"/>
<path d="M2460 2171 c-100 -22 -176 -51 -740 -286 -474 -197 -554 -224 -686
-232 l-92 -6 -233 117 c-223 112 -237 117 -296 117 -65 1 -173 -38 -173 -61 0
-6 53 -81 118 -168 65 -86 142 -190 171 -230 l54 -73 -35 -37 c-19 -20 -38
-45 -42 -56 -4 -12 -12 -16 -23 -11 -10 3 -73 16 -140 28 -68 12 -123 24 -123
27 0 4 67 16 150 29 82 13 150 26 150 30 0 4 -10 17 -23 29 l-23 22 -135 -24
c-132 -24 -352 -99 -319 -109 8 -3 134 -30 280 -60 201 -41 264 -58 261 -68
-38 -144 -80 -298 -86 -311 -4 -10 -6 -18 -4 -18 2 0 67 26 144 59 l140 58 90
130 90 131 106 16 c121 19 282 58 454 112 97 30 253 61 261 51 1 -1 -27 -65
-62 -142 -35 -77 -68 -153 -74 -169 -9 -27 -11 -28 -28 -13 -32 29 -72 39
-109 26 -37 -12 -73 -59 -73 -95 0 -18 -16 -28 -95 -58 -52 -20 -134 -47 -182
-61 -48 -14 -89 -28 -92 -30 -8 -8 80 -5 174 6 95 11 227 41 281 64 27 11 39
11 75 -2 72 -24 163 7 246 83 39 36 537 654 611 758 50 70 16 58 -57 -19 -66
-71 -80 -77 -29 -12 24 30 32 50 32 78 l-1 38 81 35 c94 40 303 111 373 126
26 6 56 13 66 16 35 11 16 -25 -40 -74 -75 -64 -157 -119 -265 -176 -106 -56
-120 -58 -111 -13 4 24 3 29 -6 21 -15 -14 -101 -154 -95 -154 17 0 314 159
384 205 109 73 195 157 216 212 15 40 15 44 0 69 -22 33 -73 54 -131 54 -25 0
-60 7 -78 17 -49 25 -202 27 -307 4z m240 -50 c0 -5 -12 -11 -27 -13 -26 -3
-28 -5 -24 -48 1 -25 4 -46 6 -48 1 -2 32 17 68 43 53 37 72 45 108 44 49 0
111 -19 116 -34 2 -6 -34 -18 -80 -28 -128 -26 -276 -78 -577 -202 -364 -151
-902 -355 -1125 -427 -128 -41 -585 -157 -585 -147 0 15 429 241 530 279 43
16 66 36 30 26 -130 -36 -250 -43 -353 -21 -86 18 -149 50 -321 164 -136 90
-137 91 -109 102 48 18 93 3 304 -105 222 -112 284 -132 378 -121 169 20 231
42 1036 378 273 114 321 131 416 152 74 16 209 19 209 6z m-356 -344 c-11 -14
-143 -184 -295 -378 -252 -323 -281 -357 -334 -387 -32 -18 -60 -31 -62 -28
-2 2 14 39 36 82 35 71 47 84 106 123 36 23 64 45 62 47 -2 3 -25 -4 -51 -15
-51 -22 -55 -18 -28 29 11 20 38 42 76 61 63 33 69 48 11 29 -20 -7 -39 -10
-41 -7 -11 11 29 69 57 85 101 56 116 74 41 48 -23 -9 -42 -12 -42 -8 0 4 12
25 26 45 39 57 21 57 -40 -1 -54 -52 -55 -52 -119 -52 -36 0 -79 -3 -96 -6
-20 -4 -31 -3 -31 5 0 6 4 11 9 11 5 0 80 34 167 76 88 42 236 112 329 157 94
44 183 89 200 98 36 23 43 17 19 -14z m-1867 -119 c177 -117 273 -156 412
-168 12 -1 -20 -21 -89 -58 -41 -22 -95 -51 -120 -66 -25 -14 -49 -26 -55 -26
-5 0 -17 17 -26 38 -9 20 -52 84 -95 142 -121 161 -155 210 -145 210 5 0 58
-32 118 -72z m1343 -63 c0 -2 -37 -23 -82 -45 -119 -60 -148 -91 -113 -120 23
-19 9 -27 -106 -61 -244 -71 -408 -109 -541 -128 -55 -7 -56 -7 -61 18 -3 14
-3 29 -1 32 2 3 32 14 66 23 105 29 332 107 698 239 128 47 140 50 140 42z
m-18 -200 c-5 -29 -11 -31 -26 -9 -17 22 -11 37 12 32 11 -2 16 -11 14 -23z
m-902 -132 c0 -3 -6 -14 -14 -22 -8 -9 -51 -70 -95 -135 -79 -118 -82 -120
-151 -152 -38 -18 -70 -29 -70 -24 0 5 13 56 29 112 16 57 31 111 33 121 2 13
34 28 116 56 63 22 116 42 119 45 9 8 33 8 33 -1z m-316 -18 c11 -8 28 -15 39
-15 17 0 17 -2 -5 -29 l-23 -29 -35 21 c-19 11 -37 22 -39 24 -5 4 30 43 38
43 3 0 15 -7 25 -15z m1048 -260 c11 -14 29 -25 41 -25 19 0 18 -2 -8 -16 -25
-13 -39 -14 -87 -4 -47 9 -67 8 -108 -4 -50 -15 -61 -11 -38 12 7 7 17 26 22
44 17 50 48 61 109 37 27 -11 58 -31 69 -44z"/>
<path d="M2393 1993 c-17 -6 -17 -38 0 -51 10 -9 19 -7 35 4 18 12 20 19 12
35 -11 19 -23 22 -47 12z"/>
<path d="M2293 1953 c-7 -2 -13 -13 -13 -23 0 -26 21 -39 48 -29 25 10 26 13
12 40 -11 19 -23 22 -47 12z"/>
<path d="M2196 1907 c-13 -10 -16 -20 -12 -35 8 -25 24 -28 50 -9 15 11 17 17
7 35 -14 26 -21 27 -45 9z"/>
<path d="M2096 1867 c-23 -17 -13 -57 13 -57 29 0 44 25 31 49 -13 25 -20 26
-44 8z"/>
<path d="M2003 1829 c-27 -10 -30 -31 -7 -50 11 -9 20 -10 32 -3 22 14 25 27
10 46 -10 12 -19 14 -35 7z"/>
<path d="M1892 1777 c-9 -10 -8 -18 1 -32 19 -25 59 -12 55 18 -4 26 -39 35
-56 14z"/>
<path d="M1792 1737 c-9 -10 -8 -18 1 -32 19 -25 59 -12 55 18 -4 26 -39 35
-56 14z"/>
<path d="M1694 1696 c-10 -26 4 -48 28 -44 17 2 23 10 23 28 0 18 -6 26 -23
28 -13 2 -25 -3 -28 -12z"/>
<path d="M1594 1656 c-10 -26 4 -48 28 -44 17 2 23 10 23 28 0 18 -6 26 -23
28 -13 2 -25 -3 -28 -12z"/>
<path d="M1502 1621 c-23 -14 -10 -46 18 -46 20 0 25 5 25 25 0 26 -20 36 -43
21z"/>
<path d="M1401 1576 c-18 -22 3 -56 29 -49 28 7 33 19 20 43 -13 23 -33 26
-49 6z"/>
<path d="M1301 1536 c-18 -22 3 -56 29 -49 26 7 33 18 25 43 -7 23 -37 26 -54
6z"/>
<path d="M1206 1497 c-23 -17 -11 -47 19 -47 29 0 38 13 30 40 -7 23 -24 25
-49 7z"/>
<path d="M990 2145 l-145 -14 -28 -33 c-31 -37 -111 -168 -105 -173 8 -8 337
-32 448 -33 147 -2 135 12 -20 23 -58 4 -107 8 -110 10 -3 2 -50 6 -105 9
-172 11 -174 13 -127 87 53 82 57 83 307 103 98 8 227 25 233 31 9 9 -199 3
-348 -10z"/>
<path d="M1598 2079 c13 -5 78 -12 145 -15 67 -4 126 -10 130 -14 12 -11 -27
-32 -148 -80 -60 -24 -114 -46 -120 -50 -5 -4 -21 -11 -35 -15 -14 -4 -47 -17
-75 -30 -310 -137 -474 -173 -577 -128 -36 16 -52 42 -25 44 6 0 21 2 32 4 11
2 61 8 110 15 50 6 101 14 115 16 14 2 43 7 65 10 22 4 47 10 55 15 27 15 -62
10 -261 -16 -107 -14 -209 -25 -226 -25 -18 0 -33 -4 -33 -9 0 -4 46 -30 103
-56 101 -47 103 -47 182 -42 112 8 206 35 401 115 93 39 261 109 374 155 113
46 214 88 225 93 25 10 -135 21 -325 22 -92 1 -128 -2 -112 -9z"/>
<path d="M2503 1628 c-22 -11 -23 -17 -23 -130 0 -277 -91 -492 -294 -693
-176 -174 -368 -263 -609 -281 -223 -17 -485 69 -661 219 -38 33 -63 46 -98
51 -27 4 -48 5 -48 2 0 -3 24 -27 53 -55 209 -198 453 -290 737 -278 196 8
355 59 518 167 261 172 427 445 464 760 11 91 4 251 -10 249 -4 0 -17 -5 -29
-11z"/>
<path d="M2379 1564 c-35 -17 -71 -54 -156 -161 -61 -76 -119 -148 -130 -159
-10 -12 -67 -81 -127 -153 -111 -136 -184 -197 -267 -227 -48 -16 -107 -18
-143 -4 -18 7 -35 5 -62 -6 -98 -41 -400 -81 -512 -69 l-57 6 35 -30 c87 -74
248 -150 375 -176 101 -21 268 -21 366 -1 342 72 614 332 711 681 21 75 38
326 22 324 -5 -1 -30 -12 -55 -25z m31 -103 c0 -225 -132 -499 -312 -646 -27
-22 -58 -48 -70 -57 -37 -31 -191 -105 -263 -127 -188 -56 -401 -43 -586 35
-63 26 -144 73 -137 79 2 2 30 6 63 10 175 18 238 27 315 47 53 13 119 21 175
22 82 1 97 4 160 35 70 35 151 107 226 201 20 25 72 88 115 140 44 53 117 144
164 202 122 153 150 164 150 59z"/>
<path d="M1639 1310 c-50 -29 -479 -134 -597 -146 -37 -3 -72 -9 -79 -13 -17
-9 -163 -209 -163 -224 0 -7 12 -28 28 -46 l27 -33 90 16 c106 20 252 63 350
105 55 24 71 35 79 58 24 77 130 128 195 94 15 -8 22 3 54 82 21 51 40 98 43
105 7 14 -4 15 -27 2z m-47 -97 c-16 -44 -21 -48 -52 -51 -100 -7 -152 -38
-190 -111 -17 -34 -27 -40 -137 -79 -128 -46 -269 -82 -320 -82 -34 0 -60 28
-50 54 5 13 125 176 130 176 60 2 449 87 567 124 71 23 72 22 52 -31z"/>
</g>
</svg>
